<svg xmlns="http://www.w3.org/2000/svg" aria-hidden="true" style="position:absolute;width:0;height:0;overflow:hidden">
  <defs>
    <symbol id="icon-linkedin" viewBox="0 0 32 32">
      <path d="M27.579 3.798H5.134a.975.975 0 0 0-.976.976v22.445c0 .54.436.976.976.976h22.445c.54 0 .976-.436.976-.976V4.774a.975.975 0 0 0-.976-.976zM11.395 24.587h-3.62V12.944h3.62v11.643zM9.587 11.351a2.096 2.096 0 0 1-1.939-1.296 2.095 2.095 0 0 1 .455-2.286 2.099 2.099 0 1 1 1.484 3.582zm15.361 13.236h-3.617v-5.663c0-1.351-.024-3.086-1.882-3.086-1.882 0-2.171 1.47-2.171 2.989v5.761h-3.614V12.945h3.47v1.592h.049c.482-.915 1.662-1.882 3.425-1.882 3.666 0 4.34 2.412 4.34 5.547v6.386z"/>
    </symbol>
    <symbol id="icon-facebook" viewBox="0 0 32 32">
      <path d="M27.589 3.798H5.144a.975.975 0 0 0-.976.976v22.445c0 .54.436.976.976.976h22.445c.54 0 .976-.436.976-.976V4.774a.975.975 0 0 0-.976-.976zm-2.818 7.12h-1.949c-1.528 0-1.824.726-1.824 1.793v2.351h3.647l-.476 3.681h-3.172v9.451h-3.803v-9.448h-3.181v-3.684h3.181v-2.714c0-3.15 1.924-4.867 4.736-4.867 1.348 0 2.504.101 2.842.146v3.29h-.003z"/>
    </symbol>
    <symbol id="icon-twitter" viewBox="0 0 31 32">
      <path d="M28.301 8.138c-.933.402-1.949.692-2.995.805a5.185 5.185 0 0 0 2.287-2.867 10.262 10.262 0 0 1-3.3 1.256 5.18 5.18 0 0 0-3.8-1.643 5.2 5.2 0 0 0-5.2 5.203c0 .403.049.805.128 1.192A14.776 14.776 0 0 1 4.699 6.64a5.166 5.166 0 0 0-.708 2.626c0 1.805.918 3.397 2.318 4.334a5.246 5.246 0 0 1-2.351-.662v.064a5.201 5.201 0 0 0 4.169 5.105 5.499 5.499 0 0 1-1.369.177c-.338 0-.659-.034-.982-.079a5.211 5.211 0 0 0 4.861 3.608 10.42 10.42 0 0 1-6.456 2.223c-.436 0-.839-.015-1.256-.064a14.725 14.725 0 0 0 7.987 2.333c9.564 0 14.797-7.923 14.797-14.8 0-.226 0-.451-.015-.677a11.194 11.194 0 0 0 2.607-2.69z"/>
    </symbol>
    <symbol id="icon-phone" viewBox="0 0 32 32">
      <path d="M21.333 1.335H10.666c-2.213 0-4 1.787-4 4v21.333c0 2.213 1.787 4 4 4h10.667c2.213 0 4-1.787 4-4V5.335c0-2.213-1.787-4-4-4zm-2.666 26.666h-5.333v-1.333h5.333v1.333zm4.333-4H9V5.334h14v18.667z"/>
    </symbol>
    <symbol id="icon-map" viewBox="0 0 31 32">
      <path d="M15.66 18.611c2.879 0 5.22-2.341 5.22-5.22s-2.341-5.22-5.22-5.22-5.22 2.341-5.22 5.22a5.225 5.225 0 0 0 5.22 5.22zm0-7.83c1.439 0 2.61 1.171 2.61 2.61s-1.171 2.61-2.61 2.61c-1.439 0-2.61-1.171-2.61-2.61s1.171-2.61 2.61-2.61z"/>
      <path d="M14.903 28.808a1.3 1.3 0 0 0 1.514 0c.397-.281 9.721-7.013 9.683-15.417 0-5.756-4.683-10.44-10.44-10.44S5.22 7.635 5.22 13.384c-.038 8.41 9.286 15.143 9.683 15.423zm.757-23.247c4.318 0 7.83 3.512 7.83 7.836.027 5.791-5.726 10.992-7.83 12.697-2.102-1.707-7.857-6.908-7.83-12.704 0-4.318 3.512-7.83 7.83-7.83z"/>
    </symbol>
    <symbol id="icon-infinity" viewBox="0 0 69 32">
      <path d="M53.516 0c-4.143 0-8.056 1.665-10.847 4.55L22.442 23.108c-1.841 1.903-4.287 2.944-6.905 2.944-5.38 0-9.782-4.491-9.782-10.052s4.402-10.052 9.782-10.052c2.618 0 5.064 1.041 7.02 3.063l3.251 2.974L30.21 8l-3.683-3.301c-1.441-1.495-3.154-2.68-5.04-3.486S17.578-.006 15.537.001C6.963.001 0 7.198 0 16.001s6.963 16 15.537 16c4.143 0 8.056-1.665 10.847-4.55L46.611 8.893c1.841-1.903 4.287-2.944 6.905-2.944 5.38 0 9.782 4.491 9.782 10.052s-4.402 10.052-9.782 10.052c-2.589 0-5.064-1.041-7.02-3.063l-3.338-3.004-4.316 3.985 3.683 3.331c1.445 1.488 3.159 2.666 5.045 3.467s3.907 1.21 5.946 1.202c8.574 0 15.537-7.167 15.537-15.97 0-8.922-6.963-16-15.537-16z"/>
    </symbol>
    <symbol id="icon-alien" viewBox="0 0 31 32">
      <path d="M12.853 14.288c1.578 2.624 1.346 5.712-.541 6.96-1.887 1.216-4.702.08-6.295-2.544-1.578-2.624-1.33-5.744.557-6.96s4.702-.08 6.279 2.544zM15.467 25.2c3.093 0 3.867-1.2 3.867-1.2s-.773 3.2-3.867 3.2c-3.093 0-3.867-3.152-3.867-3.2 0 0 .773 1.2 3.867 1.2zm8.893-13.456c1.887 1.216 2.134 4.336.557 6.96-1.593 2.624-4.408 3.76-6.295 2.544-1.887-1.248-2.119-4.336-.541-6.96s4.393-3.76 6.279-2.544zM15.467 28.8c3.867 0 12.373-8.224 12.373-14.4S22.287 3.2 15.467 3.2C8.646 3.2 3.094 8.224 3.094 14.4s8.507 14.4 12.373 14.4zm0-28.8c8.507 0 15.467 6.464 15.467 14.4 0 6.528-8.785 17.6-15.467 17.6S0 20.928 0 14.4C0 6.464 6.96 0 15.467 0z"/>
    </symbol>
    <symbol id="icon-spoon" viewBox="0 0 35 32">
      <path d="m9.528 18.145 5.031-5.031L3.555 2.127c-.853-.853-2.329-.622-2.862.48a7.14 7.14 0 0 0 1.387 8.107l7.449 7.431zm12.054-3.218c2.72 1.262 6.542.373 9.369-2.453 3.396-3.396 4.053-8.267 1.44-10.88-2.595-2.596-7.467-1.956-10.88 1.44-2.827 2.827-3.715 6.649-2.453 9.369L2.951 28.51a1.773 1.773 0 0 0 2.506 2.506l11.004-10.969 10.987 10.987a1.769 1.769 0 0 0 1.931.384 1.785 1.785 0 0 0 .959-.959 1.775 1.775 0 0 0-.384-1.931L18.967 17.541l2.613-2.613z"/>
    </symbol>
  </defs>
</svg>
